<svg xmlns="http://www.w3.org/2000/svg" viewBox="0 0 24 24" fill="currentColor" class="w-6 h-6">
  <path fill-rule="evenodd" d="M15.75 4.5H6.75A2.25 2.25 0 004.5 6.75v10.5A2.25 2.25 0 006.75 19.5h9a2.25 2.25 0 002.25-2.25V15a.75.75 0 011.5 0v2.25A3.75 3.75 0 0115.75 21H6.75A3.75 3.75 0 013 17.25V6.75A3.75 3.75 0 016.75 3h9A3.75 3.75 0 0119.5 6.75V9a.75.75 0 01-1.5 0V6.75A2.25 2.25 0 0015.75 4.5zM17.03 11.47l-3-3a.75.75 0 00-1.06 1.06l1.72 1.72H9a.75.75 0 000 1.5h5.69l-1.72 1.72a.75.75 0 101.06 1.06l3-3a.75.75 0 000-1.06z" clip-rule="evenodd" />
</svg>
